<?xml version="1.0" encoding="UTF-8"?>
<svg id="Layer_1" data-name="Layer 1" xmlns="http://www.w3.org/2000/svg" width="564" height="361.85" viewBox="0 0 564 361.85">
  <defs>
    <style>
      .cls-1 {
        font-size: 139.98px;
      }

      .cls-1, .cls-2, .cls-3 {
        fill: #fff;
      }

      .cls-1, .cls-4 {
        font-family: TwCenMT-CondensedExtraBold, 'Tw Cen MT Condensed Extra Bold';
        font-weight: 700;
      }

      .cls-5 {
        letter-spacing: 0em;
      }

      .cls-6 {
        fill: none;
      }

      .cls-6, .cls-2 {
        stroke: #f36c3d;
      }

      .cls-6, .cls-2, .cls-3 {
        stroke-miterlimit: 10;
      }

      .cls-6, .cls-3 {
        stroke-width: 4px;
      }

      .cls-2 {
        stroke-width: 3px;
      }

      .cls-3 {
        stroke: #fff;
      }

      .cls-7, .cls-4 {
        fill: #f36c3d;
      }

      .cls-4 {
        font-size: 72px;
      }
    </style>
  </defs>
  <text class="cls-1" transform="translate(15.04 316.22)"><tspan x="0" y="0">H</tspan></text>
  <text class="cls-1" transform="translate(283.71 316.22)"><tspan x="0" y="0">H</tspan></text>
  <text class="cls-4" transform="translate(87.3 316.22)"><tspan x="0" y="0">ealt</tspan><tspan class="cls-5" x="103.96" y="0">h</tspan><tspan x="137.32" y="0">y</tspan></text>
  <path class="cls-7" d="M3,257.7c48.54-40.4,100.13-77.99,151.71-114.45,0,0,3.73-2.64,3.73-2.64l3.74,2.64c51.6,36.45,103.18,74.02,151.71,114.45-41.08-23.97-80.78-50.12-120.13-76.8-9.79-6.65-29.36-20.22-39.05-27.01,0,0,7.47,0,7.47,0C110.37,190.02,57.5,225.76,3,257.7h0Z"/>
  <path class="cls-7" d="M240.59,202.9c18.03-15.98,36.89-30.92,55.99-45.56,7.39-5.67,14.92-11.26,22.39-16.83,0,0,3.59,2.39,3.59,2.39,52.58,35.37,104.27,72.23,152.05,113.97-55.49-30.76-107.72-66.85-158.84-104.3,0,0,6.79,0,6.79,0-26.76,17.67-53.81,34.93-81.97,50.33h0Z"/>
  <line class="cls-2" x1="54.72" y1=".85" x2="54.72"/>
  <text/>
  <text class="cls-4" transform="translate(351.6 316.22)"><tspan x="0" y="0">omes</tspan></text>
  <polygon class="cls-6" points="239.98 54.52 203.65 77.19 203.65 168.62 239.98 194.98 239.98 54.52"/>
  <polygon class="cls-3" points="243.28 54.52 279.62 77.19 279.62 165.45 243.28 195.27 243.28 54.52"/>
  <polyline class="cls-6" points="203.65 75.69 203.65 168.62 239.98 193.48"/>
  <line class="cls-6" x1="203.65" y1="101.6" x2="239.98" y2="82.85"/>
  <line class="cls-6" x1="203.65" y1="132.6" x2="239.98" y2="113.85"/>
  <line class="cls-6" x1="203.65" y1="168.6" x2="239.98" y2="149.85"/>
  <text/>
  <text/>
</svg>