<?xml version="1.0" encoding="UTF-8"?>
<svg xmlns="http://www.w3.org/2000/svg" width="1300" height="412.61" viewBox="0 0 1300 412.61">
  <defs>
    <style>
      .cls-1 {
        font-size: 210.34px;
      }

      .cls-1, .cls-2, .cls-3 {
        fill: #fff;
      }

      .cls-1, .cls-4 {
        font-family: TwCenMT-CondensedExtraBold, 'Tw Cen MT Condensed Extra Bold';
        font-weight: 700;
      }

      .cls-5 {
        letter-spacing: 0em;
      }

      .cls-6 {
        fill: none;
      }

      .cls-6, .cls-2 {
        stroke: #f36c3d;
      }

      .cls-6, .cls-2, .cls-3 {
        stroke-miterlimit: 10;
      }

      .cls-6, .cls-3 {
        stroke-width: 4px;
      }

      .cls-2 {
        stroke-width: 3px;
      }

      .cls-3 {
        stroke: #fff;
      }

      .cls-7, .cls-4 {
        fill: #f36c3d;
      }

      .cls-4 {
        font-size: 108.19px;
      }
    </style>
  </defs>
  <g id="Layer_2" data-name="Layer 2">
    <line class="cls-2" x1="261.43" y1="172.46" x2="261.43" y2="171.35"/>
    <text/>
    <text/>
    <g>
      <path class="cls-7" d="M7.9,266.28c83.26-32.31,169.78-63.79,253.9-93.85,45.43-16.22,107.61-38.1,153.19-53.86,0,0,2.12-.74,2.12-.74l2.13.74s51.13,17.77,51.13,17.77c118.18,41.52,239.26,84.7,355.96,129.94-119.69-36.55-241.62-77.42-360.16-117.81,0,0-51.18-17.62-51.18-17.62,0,0,4.25,0,4.25,0-45.56,15.77-108.01,37.01-153.72,52.32-84.72,28.35-172.18,57.06-257.62,83.12h0Z"/>
      <path class="cls-7" d="M633.35,195.19c67.48-27.11,136.54-52.49,204.92-77.15,0,0,1.86-.67,1.86-.67,0,0,2,.67,2,.67,93.92,31.38,187.97,64.26,280.89,98.61,41.62,15.47,85.24,31.92,126.39,48.55-42.6-12.36-87.1-26.38-129.37-39.94-94.29-30.42-188.54-62.68-281.78-96.05,0,0,3.86,0,3.86,0-17.31,5.75-34.63,11.49-51.99,17.1-51.55,16.81-104.73,33.71-156.8,48.88h0Z"/>
      <polygon class="cls-6" points="631.74 2.71 536.1 32.11 536.1 150.72 631.74 184.92 631.74 2.71"/>
      <polygon class="cls-3" points="640.44 2.71 736.09 32.11 736.09 146.61 640.44 185.3 640.44 2.71"/>
      <polyline class="cls-6" points="536.1 30.17 536.1 150.72 631.74 182.97"/>
      <line class="cls-6" x1="536.1" y1="63.79" x2="631.74" y2="39.46"/>
      <line class="cls-6" x1="536.1" y1="104" x2="631.74" y2="79.68"/>
      <line class="cls-6" x1="536.1" y1="150.7" x2="631.74" y2="126.38"/>
      <text/>
    </g>
  </g>
  <g id="Layer_4" data-name="Layer 4">
    <g>
      <text class="cls-1" transform="translate(80.35 337.06) scale(1.52 1)"><tspan x="0" y="0">H</tspan></text>
      <text class="cls-1" transform="translate(728.79 337.06) scale(1.52 1)"><tspan x="0" y="0">H</tspan></text>
      <text class="cls-4" transform="translate(251.18 337.06) scale(1.89 1)"><tspan x="0" y="0">ealt</tspan><tspan class="cls-5" x="156.21" y="0">h</tspan><tspan x="206.35" y="0">y</tspan></text>
      <text class="cls-4" transform="translate(899.58 337.06) scale(1.89 1)"><tspan x="0" y="0">omes</tspan></text>
    </g>
  </g>
</svg>