<?xml version="1.0" encoding="UTF-8"?>
<svg xmlns="http://www.w3.org/2000/svg" width="1200" height="457.54" viewBox="0 0 1200 457.54">
  <defs>
    <style>
      .cls-1 {
        font-size: 210.34px;
      }

      .cls-1, .cls-2, .cls-3 {
        fill: #fff;
      }

      .cls-1, .cls-4 {
        font-family: TwCenMT-CondensedExtraBold, 'Tw Cen MT Condensed Extra Bold';
        font-weight: 700;
      }

      .cls-5 {
        fill: #152437;
      }

      .cls-6 {
        letter-spacing: 0em;
      }

      .cls-7 {
        fill: none;
      }

      .cls-7, .cls-2 {
        stroke: #f36c3d;
      }

      .cls-7, .cls-2, .cls-3 {
        stroke-miterlimit: 10;
      }

      .cls-7, .cls-3 {
        stroke-width: 4px;
      }

      .cls-2 {
        stroke-width: 3px;
      }

      .cls-3 {
        stroke: #fff;
      }

      .cls-8 {
        letter-spacing: 0em;
      }

      .cls-9, .cls-4 {
        fill: #f36c3d;
      }

      .cls-4 {
        font-size: 108.19px;
      }
    </style>
  </defs>
  <g id="Layer_3" data-name="Layer 3">
    <rect class="cls-5" width="1200" height="457.54"/>
  </g>
  <g id="Layer_2" data-name="Layer 2">
    <line class="cls-2" x1="252.06" y1="211.58" x2="252.06" y2="210.47"/>
    <text/>
    <text/>
    <g>
      <path class="cls-9" d="M20.56,305.4c75.83-32.28,154.75-63.74,231.51-93.8,43.34-16.96,96.31-37.37,139.83-53.85,0,0,2.3-.88,2.3-.88,0,0,2.3.88,2.3.88l46.68,17.77c107.87,41.51,218.37,84.68,324.66,129.88-109.53-36.59-220.94-77.48-329.21-117.87,0,0-46.73-17.62-46.73-17.62,0,0,4.6,0,4.6,0-43.5,16.49-96.73,36.32-140.41,52.33-77.41,28.36-157.35,57.09-235.54,83.17h0Z"/>
      <path class="cls-9" d="M591.64,234.31c61.41-27.06,124.37-52.47,186.78-77.09,0,0,2.01-.79,2.01-.79,94.53,34.62,188.58,70.57,281.69,108.86,29.87,12.28,62.59,25.95,92.03,39.04-30.68-9.71-64.27-21.13-94.79-31.75-94.38-32.77-187.91-67.89-280.95-104.3,0,0,4.19,0,4.19,0-15.82,5.75-31.64,11.49-47.5,17.15-47.15,16.77-95.78,33.7-143.47,48.89h0Z"/>
      <polygon class="cls-7" points="590.18 41.83 502.84 71.23 502.84 189.85 590.18 224.04 590.18 41.83"/>
      <polygon class="cls-3" points="598.12 41.83 685.45 71.23 685.45 185.74 598.12 224.42 598.12 41.83"/>
      <polyline class="cls-7" points="502.84 69.29 502.84 189.85 590.18 222.09"/>
      <line class="cls-7" x1="502.84" y1="102.91" x2="590.18" y2="78.59"/>
      <line class="cls-7" x1="502.84" y1="143.12" x2="590.18" y2="118.8"/>
      <line class="cls-7" x1="502.84" y1="189.83" x2="590.18" y2="165.5"/>
      <text/>
    </g>
  </g>
  <g id="Layer_4" data-name="Layer 4">
    <g>
      <text class="cls-1" transform="translate(59.29 376.18) scale(1.73 1)"><tspan x="0" y="0">H</tspan></text>
      <text class="cls-1" transform="translate(655.65 376.18) scale(1.73 1)"><tspan x="0" y="0">H</tspan></text>
      <text class="cls-4" transform="translate(216.69 376.18) scale(1.73 1)"><tspan x="0" y="0">ealt</tspan><tspan class="cls-6" x="156.21" y="0">h</tspan><tspan class="cls-8" x="206.35" y="0">y</tspan></text>
      <text class="cls-4" transform="translate(809.73 376.18) scale(1.73 1)"><tspan x="0" y="0">omes</tspan></text>
    </g>
  </g>
</svg>