<?xml version="1.0" encoding="UTF-8"?>
<svg id="Layer_1" data-name="Layer 1" xmlns="http://www.w3.org/2000/svg" viewBox="0 0 561 361.85">
  <defs>
    <style>
      .cls-1, .cls-2, .cls-3, .cls-4, .cls-5 {
        stroke: #152437;
      }

      .cls-1, .cls-6 {
        fill: #f36c3d;
      }

      .cls-7, .cls-2, .cls-8, .cls-3, .cls-4 {
        fill: #fff;
      }

      .cls-2 {
        letter-spacing: 0em;
      }

      .cls-9 {
        fill: none;
      }

      .cls-9, .cls-8, .cls-10, .cls-5 {
        stroke-miterlimit: 10;
      }

      .cls-9, .cls-8, .cls-11 {
        stroke: #f36c3d;
      }

      .cls-9, .cls-5 {
        stroke-width: 4px;
      }

      .cls-8 {
        stroke-width: 3px;
      }

      .cls-10 {
        font-family: TwCenMT-CondensedExtraBold, 'Tw Cen MT Condensed Extra Bold';
        font-size: 82.77px;
        font-weight: 700;
      }

      .cls-4 {
        letter-spacing: 0em;
      }

      .cls-5, .cls-11 {
        fill: #152437;
      }

      .cls-11 {
        letter-spacing: 0em;
      }
    </style>
  </defs>
  <g>
    <polyline class="cls-7" points="0 257.7 155.45 148.57 234.02 203.73 310.9 257.7"/>
    <path class="cls-6" d="M0,257.7c48.54-40.4,100.13-77.99,151.71-114.45,0,0,3.73-2.64,3.73-2.64l3.74,2.64c51.6,36.45,103.18,74.02,151.71,114.45-41.08-23.97-80.78-50.12-120.13-76.8-9.79-6.65-29.36-20.22-39.05-27.01,0,0,7.47,0,7.47,0C107.37,190.02,54.5,225.76,0,257.7h0Z"/>
  </g>
  <path class="cls-6" d="M237.59,202.9c18.03-15.98,36.89-30.92,55.99-45.56,7.39-5.67,14.92-11.26,22.39-16.83,0,0,3.59,2.39,3.59,2.39,52.58,35.37,104.27,72.23,152.05,113.97-55.49-30.76-107.72-66.85-158.84-104.3,0,0,6.79,0,6.79,0-26.76,17.67-53.81,34.93-81.97,50.33h0Z"/>
  <line class="cls-8" x1="51.72" y1=".85" x2="51.72"/>
  <text/>
  <text class="cls-10" transform="translate(22.6 308.46)"><tspan class="cls-1" x="0" y="0">H</tspan><tspan class="cls-3" x="46.92" y="0">ealt</tspan><tspan class="cls-4" x="166.42" y="0">h</tspan><tspan class="cls-3" x="204.77" y="0">y</tspan><tspan class="cls-11" x="240.94" y="0"> </tspan><tspan class="cls-1" x="261.23" y="0">H</tspan><tspan class="cls-2" x="308.15" y="0">omes</tspan></text>
  <polygon class="cls-9" points="236.98 54.52 200.65 77.19 200.65 168.62 236.98 194.98 236.98 54.52"/>
  <polygon class="cls-5" points="240.28 54.52 276.62 77.19 276.62 165.45 240.28 195.27 240.28 54.52"/>
  <polyline class="cls-9" points="200.65 75.69 200.65 168.62 236.98 193.48"/>
  <line class="cls-9" x1="200.65" y1="101.6" x2="236.98" y2="82.85"/>
  <line class="cls-9" x1="200.65" y1="132.6" x2="236.98" y2="113.85"/>
  <line class="cls-9" x1="200.65" y1="168.6" x2="236.98" y2="149.85"/>
  <text/>
</svg>